<svg width="120" height="120" viewBox="0 0 120 120" fill="none" xmlns="http://www.w3.org/2000/svg">
<path d="M83.7932 79.4799C82.4411 79.4799 81.3442 80.5763 81.3442 81.9289V92.8349H21.583V17.7024H81.3442V28.9712C81.3442 30.324 82.4411 31.4202 83.7932 31.4202C85.1458 31.4202 86.2422 30.324 86.2422 28.9712V2.44898C86.2422 1.09641 85.1458 0 83.7932 0H19.134C17.7815 0 16.6851 1.09641 16.6851 2.44898V117.551C16.6851 118.903 17.7815 120 19.134 120H83.7932C85.1458 120 86.2422 118.903 86.2422 117.551V81.9289C86.2422 80.5763 85.146 79.4799 83.7932 79.4799ZM81.3442 4.89796V12.8045H21.583V4.89796H81.3442ZM21.583 115.102V97.7329H81.3442V115.102H21.583Z" fill="#FF1E56"/>
<path d="M51.4824 109.951C53.5268 109.951 55.184 108.292 55.184 106.245C55.184 104.198 53.5268 102.539 51.4824 102.539C49.438 102.539 47.7808 104.198 47.7808 106.245C47.7808 108.292 49.438 109.951 51.4824 109.951Z" fill="#FF1E56"/>
<path d="M63.6069 61.011C63.1397 59.7405 61.7315 59.0898 60.4629 59.5585L58.886 60.1402C58.6568 59.7745 58.4077 59.4216 58.1408 59.0832L59.2161 57.7904C60.0819 56.7498 59.9413 55.2038 58.9019 54.3373C57.8631 53.4713 56.318 53.6131 55.4528 54.6537L54.3804 55.9426C54.001 55.7413 53.6099 55.5581 53.2051 55.3972L53.4897 53.7471C53.7194 52.4124 52.8253 51.1446 51.4928 50.9148C50.1598 50.6851 48.8927 51.5805 48.6625 52.9152L48.3784 54.5655C47.9432 54.5812 47.5127 54.6229 47.0878 54.6858L46.5091 53.1123C46.0419 51.8418 44.6337 51.1913 43.3646 51.6596C42.0951 52.1281 41.4451 53.5375 41.9124 54.808L42.493 56.3861C42.1277 56.6158 41.775 56.8649 41.4368 57.1328L40.1459 56.0567C39.1076 55.1903 37.562 55.3321 36.6968 56.3726C35.8311 57.4135 35.9717 58.9595 37.011 59.8257L38.2982 60.8986C38.0969 61.2784 37.9137 61.6703 37.7533 62.0758L36.1046 61.7915C34.7716 61.5618 33.5045 62.4574 33.2748 63.7918V63.7921C33.0449 65.1265 33.9388 66.3944 35.2717 66.6241L36.9199 66.9082C36.9356 67.3433 36.9772 67.7744 37.0394 68.1995L35.4676 68.7794C34.1981 69.2479 33.5481 70.6573 34.0154 71.9278C34.4827 73.1984 35.8908 73.8491 37.1599 73.3803L38.7365 72.7987C38.9658 73.1641 39.2143 73.5172 39.4818 73.8554L38.4064 75.1482C37.5412 76.1891 37.6818 77.7351 38.7211 78.6013C39.76 79.4675 41.3046 79.3257 42.1703 78.2851L43.2422 76.996C43.6215 77.1973 44.0131 77.3805 44.4179 77.5414L44.1334 79.192C43.9037 80.5265 44.7973 81.7945 46.1303 82.024C47.4632 82.254 48.7303 81.3581 48.9601 80.0237L49.2446 78.3733C49.6798 78.3574 50.1099 78.3158 50.5348 78.2531L51.1134 79.8265C51.5807 81.0968 52.9889 81.7478 54.2579 81.279C55.5275 80.8108 56.1775 79.4011 55.7102 78.1309L55.1295 76.5525C55.4949 76.323 55.8476 76.0737 56.1858 75.806L57.4771 76.8819C58.5155 77.7483 60.0606 77.6065 60.9263 76.5657C61.7915 75.5249 61.6509 73.9789 60.6116 73.1127L59.3244 72.04C59.5257 71.6599 59.7089 71.2683 59.8698 70.8628L61.5179 71.1471C62.8509 71.3768 64.118 70.4812 64.3482 69.1468C64.5782 67.8121 63.6838 66.5442 62.3513 66.3145L60.7027 66.0307C60.6873 65.595 60.6459 65.1642 60.5832 64.7389L62.1554 64.1592C63.424 63.6909 64.0742 62.2813 63.6069 61.011ZM55.7102 67.6588C55.0539 71.4672 51.425 74.0322 47.621 73.3767C43.817 72.7211 41.2561 69.0892 41.9121 65.2808V65.2806C42.5685 61.4719 46.1974 58.9071 50.0019 59.5624C53.8054 60.218 56.3668 63.8499 55.7102 67.6583V67.6588Z" fill="#FF1E56"/>
<path d="M100.866 52.7967H98.1477C97.9942 51.8941 97.7608 51.019 97.4493 50.1808L99.804 48.8191C100.975 48.142 101.376 46.6442 100.698 45.4733C100.022 44.3027 98.5244 43.9018 97.3526 44.579L94.9959 45.9413C94.4194 45.2473 93.7805 44.6079 93.0869 44.0309L94.4505 41.6657C95.1264 40.4938 94.7241 38.9963 93.5522 38.3208C92.3804 37.6447 90.8833 38.0473 90.2074 39.2189L88.849 41.5745C88.0134 41.2638 87.1408 41.0304 86.2418 40.8773V38.1521C86.2418 36.7995 85.1449 35.7031 83.7928 35.7031C82.4402 35.7031 81.3433 36.7995 81.3433 38.1521V40.8773C80.4441 41.0304 79.5717 41.2638 78.7361 41.5745L77.3777 39.2189C76.7018 38.0473 75.2047 37.6447 74.0329 38.3208C72.861 38.9963 72.4587 40.4938 73.1346 41.6657L74.4982 44.0309C73.8046 44.6076 73.1657 45.2473 72.5892 45.9413L70.2325 44.579C69.0607 43.9018 67.5632 44.3027 66.8868 45.4733C66.2094 46.6442 66.6103 48.142 67.7811 48.8191L70.1358 50.1808C69.8246 51.019 69.5909 51.8941 69.4374 52.7967H66.719C65.3664 52.7967 64.27 53.8932 64.27 55.2457C64.27 56.5983 65.3664 57.6947 66.719 57.6947H69.4374C69.5909 58.5974 69.8243 59.4724 70.1358 60.3107L67.7811 61.6723C66.6103 62.3495 66.2094 63.8473 66.8868 65.0181C67.5632 66.1887 69.0607 66.5896 70.2325 65.9125L72.5892 64.5499C73.1657 65.2439 73.8046 65.8834 74.4982 66.4603L73.1346 68.8256C72.4587 69.9974 72.861 71.4949 74.0329 72.1704C75.2047 72.8465 76.7018 72.4439 77.3777 71.2723L78.7361 68.9167C79.5717 69.2272 80.4443 69.4608 81.3433 69.6139V72.3391C81.3433 73.6914 82.4402 74.7881 83.7928 74.7881C85.1449 74.7881 86.2418 73.6914 86.2418 72.3391V69.6139C87.141 69.4608 88.0134 69.2274 88.849 68.9167L90.2074 71.2723C90.8833 72.4439 92.3804 72.8465 93.5522 72.1704C94.7241 71.4949 95.1264 69.9974 94.4505 68.8256L93.0869 66.4603C93.7805 65.8836 94.4194 65.2439 94.9959 64.5499L97.3526 65.9125C98.5244 66.5896 100.022 66.1887 100.698 65.0181C101.376 63.8473 100.975 62.3495 99.804 61.6723L97.4493 60.3107C97.7606 59.4724 97.9942 58.5974 98.1477 57.6947H100.866C102.219 57.6947 103.315 56.5983 103.315 55.2457C103.315 53.8932 102.219 52.7967 100.866 52.7967ZM93.4594 55.2457C93.4594 60.5838 89.123 64.9263 83.793 64.9263C78.4626 64.9263 74.1262 60.5838 74.1262 55.2457C74.1262 49.9077 78.4626 45.5652 83.793 45.5652C89.123 45.5652 93.4594 49.9077 93.4594 55.2457Z" fill="#FF1E56"/>
</svg>
