<svg width="120" height="120" viewBox="0 0 120 120" fill="none" xmlns="http://www.w3.org/2000/svg">
<path d="M47.3457 84.0943C46.8924 84.0943 46.4358 83.9384 46.0632 83.6211L33.2434 72.705C32.8011 72.328 32.5469 71.7775 32.5469 71.196C32.5469 70.6155 32.8023 70.065 33.2434 69.688L46.0632 58.7719C46.8957 58.0621 48.1461 58.1627 48.8558 58.9952C49.5645 59.8288 49.465 61.0791 48.6314 61.7878L37.5837 71.196L48.6314 80.6041C49.465 81.3139 49.5645 82.5643 48.8558 83.3967C48.4634 83.8577 47.9062 84.0943 47.3457 84.0943Z" fill="#323232"/>
<path d="M72.654 84.0943C72.0935 84.0943 71.5363 83.8577 71.1449 83.3967C70.4352 82.5643 70.5358 81.3139 71.3682 80.6041L82.4159 71.196L71.3682 61.7878C70.5358 61.0791 70.4352 59.8288 71.1449 58.9952C71.8536 58.1627 73.105 58.0621 73.9364 58.7719L86.7563 69.688C87.1985 70.065 87.4528 70.6155 87.4528 71.196C87.4528 71.7775 87.1985 72.328 86.7563 72.705L73.9364 83.6211C73.5638 83.9384 73.1073 84.0943 72.654 84.0943Z" fill="#323232"/>
<path d="M55.4618 92.2824C55.3258 92.2824 55.1887 92.2681 55.0505 92.2393C53.9804 92.0138 53.2949 90.9624 53.5205 89.8922L61.5102 51.9578C61.7358 50.8876 62.786 50.2022 63.8573 50.4277C64.9275 50.6532 65.6129 51.7035 65.3874 52.7748L57.3976 90.7092C57.2008 91.6423 56.3783 92.2824 55.4618 92.2824Z" fill="#323232"/>
<path d="M106.698 112.95H13.3019C5.96772 112.95 0 106.983 0 99.6477V20.3781C0 13.0439 5.96772 7.07617 13.3019 7.07617H106.698C114.032 7.07617 120 13.0439 120 20.3781V99.6477C120 106.983 114.032 112.95 106.698 112.95ZM13.3019 11.0384C8.15227 11.0384 3.96226 15.2284 3.96226 20.3781V99.6477C3.96226 104.797 8.15227 108.987 13.3019 108.987H106.698C111.848 108.987 116.038 104.797 116.038 99.6477V20.3781C116.038 15.2284 111.848 11.0384 106.698 11.0384H13.3019Z" fill="#323232"/>
<path d="M118.019 38.7982H1.98113C0.886645 38.7982 0 37.9115 0 36.8171C0 35.7237 0.886645 34.8359 1.98113 34.8359H118.019C119.113 34.8359 120 35.7237 120 36.8171C120 37.9115 119.113 38.7982 118.019 38.7982Z" fill="#323232"/>
<path d="M33.8496 29.3184C30.3937 29.3184 27.5801 26.5048 27.5801 23.0488C27.5801 19.5918 30.3937 16.7793 33.8496 16.7793C37.3066 16.7793 40.1191 19.5918 40.1191 23.0488C40.1191 26.5048 37.3066 29.3184 33.8496 29.3184ZM33.8496 20.7416C32.5782 20.7416 31.5423 21.7763 31.5423 23.0488C31.5423 24.3213 32.5782 25.3561 33.8496 25.3561C35.1221 25.3561 36.1569 24.3213 36.1569 23.0488C36.1569 21.7763 35.1221 20.7416 33.8496 20.7416Z" fill="#323232"/>
<path d="M14.5864 29.2578C11.1294 29.2578 8.31689 26.4453 8.31689 22.9883C8.31689 19.5312 11.1294 16.7188 14.5864 16.7188C18.0435 16.7188 20.856 19.5312 20.856 22.9883C20.856 26.4453 18.0435 29.2578 14.5864 29.2578ZM14.5864 20.681C13.3151 20.681 12.2792 21.7169 12.2792 22.9883C12.2792 24.2608 13.3151 25.2955 14.5864 25.2955C15.8589 25.2955 16.8937 24.2608 16.8937 22.9883C16.8937 21.7169 15.8589 20.681 14.5864 20.681Z" fill="#323232"/>
<path d="M53.1122 29.3778C49.6563 29.3778 46.8438 26.5653 46.8438 23.1083C46.8438 19.6523 49.6563 16.8398 53.1122 16.8398C56.5692 16.8398 59.3817 19.6523 59.3817 23.1083C59.3817 26.5653 56.5692 29.3778 53.1122 29.3778ZM53.1122 20.801C51.8408 20.801 50.806 21.8358 50.806 23.1083C50.806 24.3807 51.8408 25.4155 53.1122 25.4155C54.3847 25.4155 55.4194 24.3807 55.4194 23.1083C55.4194 21.8358 54.3847 20.801 53.1122 20.801Z" fill="#323232"/>
</svg>
