<svg width="120" height="120" viewBox="0 0 120 120" fill="none" xmlns="http://www.w3.org/2000/svg">
<g clip-path="url(#clip0)">
<path d="M117.656 2.40234H2.34374C1.04929 2.40234 0 3.45187 0 4.74609V28.8536C0 30.1478 1.04929 31.1973 2.34374 31.1973H117.656C118.951 31.1973 120 30.1478 120 28.8536V4.74609C120 3.45187 118.951 2.40234 117.656 2.40234ZM115.313 26.5098H4.68748V7.08983H115.313V26.5098Z" fill="#FF1E56"/>
<path d="M110.017 21.1865L108.103 19.2724C108.626 18.2392 108.904 17.0913 108.904 15.9002C108.904 13.9003 108.125 12.0197 106.711 10.6055C103.791 7.68632 99.0413 7.68609 96.1217 10.6055C94.7075 12.0197 93.9287 13.9003 93.9287 15.9002C93.9287 17.9001 94.7078 19.7807 96.1217 21.1947C97.5362 22.6089 99.4166 23.3877 101.416 23.3877C102.608 23.3877 103.756 23.1093 104.789 22.5871L106.703 24.5013C107.161 24.9588 107.76 25.1877 108.36 25.1877C108.96 25.1877 109.56 24.9588 110.017 24.5013C110.933 23.586 110.933 22.102 110.017 21.1865ZM103.396 17.88C102.868 18.4089 102.165 18.7003 101.416 18.7003C100.668 18.7003 99.9655 18.4089 99.4365 17.88C98.9078 17.351 98.6162 16.6481 98.6162 15.9002C98.6162 15.1523 98.9078 14.449 99.4365 13.9202C99.9824 13.3743 100.7 13.1015 101.416 13.1015C102.133 13.1015 102.851 13.3743 103.396 13.9202C103.925 14.4492 104.217 15.1523 104.217 15.9002C104.217 16.6481 103.925 17.3512 103.396 17.88Z" fill="#FF1E56"/>
<path d="M83.9858 20.5867C83.9554 20.4365 83.9108 20.2888 83.8522 20.1484C83.7936 20.0076 83.721 19.8695 83.6366 19.743C83.5522 19.6164 83.4538 19.4945 83.346 19.3867C83.2382 19.2789 83.1186 19.1805 82.9897 19.0961C82.8632 19.0117 82.7272 18.9391 82.5843 18.8805C82.4436 18.8219 82.296 18.7773 82.146 18.7469C81.8436 18.6859 81.5319 18.6859 81.2296 18.7469C81.0796 18.7773 80.9319 18.8219 80.7913 18.8805C80.6507 18.9391 80.5147 19.0117 80.3882 19.0961C80.2593 19.1805 80.1397 19.2789 80.0296 19.3867C79.9218 19.4945 79.8257 19.6162 79.739 19.743C79.6546 19.8695 79.5819 20.0078 79.5233 20.1484C79.4647 20.2891 79.4202 20.4365 79.3897 20.5867C79.3593 20.7388 79.3452 20.8914 79.3452 21.0461C79.3452 21.1982 79.3593 21.3508 79.3897 21.5031C79.4202 21.6531 79.4647 21.8008 79.5233 21.9412C79.5819 22.082 79.6546 22.218 79.739 22.3466C79.8257 22.4732 79.9218 22.5951 80.0296 22.7029C80.1397 22.8107 80.2593 22.9094 80.3882 22.9935C80.5147 23.0779 80.6507 23.1505 80.7913 23.2091C80.9343 23.2677 81.0819 23.3122 81.2296 23.3427C81.3819 23.3732 81.5366 23.3872 81.689 23.3872C81.8413 23.3872 81.996 23.3729 82.146 23.3427C82.296 23.3125 82.4436 23.2677 82.5843 23.2091C82.7249 23.1505 82.8632 23.0779 82.9897 22.9935C83.1186 22.9094 83.2382 22.8107 83.346 22.7029C83.7819 22.2648 84.0327 21.6625 84.0327 21.0461C84.0327 20.8914 84.0163 20.7388 83.9858 20.5867Z" fill="#FF1E56"/>
<path d="M72.8029 18.7012H24.0923C22.7978 18.7012 21.7485 19.7507 21.7485 21.0449C21.7485 22.3391 22.7978 23.3887 24.0923 23.3887H72.8029C74.0974 23.3887 75.1467 22.3391 75.1467 21.0449C75.1467 19.7507 74.0974 18.7012 72.8029 18.7012Z" fill="#FF1E56"/>
<path d="M73.7859 34.5391H2.6206C1.32615 34.5391 0.276855 35.5886 0.276855 36.8828V83.1011C0.276855 84.3956 1.32615 85.4449 2.6206 85.4449H73.7859C75.0804 85.4449 76.1297 84.3953 76.1297 83.1011V36.8828C76.1297 35.5886 75.0804 34.5391 73.7859 34.5391ZM28.5482 80.7572H8.65432L22.0523 65.2449L31.7554 76.4808L28.5482 80.7572ZM34.4076 80.7572L38.7777 74.9304H50.1423C51.4367 74.9304 52.486 73.8809 52.486 72.5866C52.486 71.2924 51.4367 70.2429 50.1423 70.2429H42.2936L43.9379 68.0506H58.654L68.1849 80.7572H34.4076ZM47.4533 63.3631L51.2959 58.2399L55.1384 63.3631H47.4533ZM71.4422 77.288L53.1709 52.9271C52.7281 52.337 52.0334 51.9896 51.2959 51.9896C50.5583 51.9896 49.8636 52.337 49.4209 52.9271L34.6342 72.6424L23.8263 60.1269C23.3812 59.6115 22.7336 59.315 22.0525 59.315C21.3715 59.315 20.7241 59.6115 20.2788 60.1269L4.96434 77.8579V39.2265H71.4422V77.288Z" fill="#FF1E56"/>
<path d="M32.2614 41.918C27.6925 41.918 23.9756 45.6349 23.9756 50.2038C23.9756 54.7727 27.6928 58.4896 32.2614 58.4896C36.8303 58.4896 40.5472 54.7727 40.5472 50.2038C40.5472 45.6349 36.8303 41.918 32.2614 41.918ZM32.2614 53.8024C30.2772 53.8024 28.6631 52.1882 28.6631 50.204C28.6631 48.2198 30.2774 46.6057 32.2614 46.6057C34.2454 46.6057 35.8598 48.2198 35.8598 50.204C35.8598 52.1882 34.2456 53.8024 32.2614 53.8024Z" fill="#FF1E56"/>
<path d="M117.656 34.5391H81.6352C80.3408 34.5391 79.2915 35.5886 79.2915 36.8828V83.1011C79.2915 84.3953 80.3408 85.4449 81.6352 85.4449H117.656C118.951 85.4449 120 84.3953 120 83.1011V36.8828C120 35.5886 118.951 34.5391 117.656 34.5391ZM115.312 80.7574H83.979V39.2265H115.312V80.7574Z" fill="#FF1E56"/>
<path d="M109.855 43.0859H89.4355C88.1411 43.0859 87.0918 44.1355 87.0918 45.4297C87.0918 46.7239 88.1411 47.7734 89.4355 47.7734H109.855C111.15 47.7734 112.199 46.7239 112.199 45.4297C112.199 44.1355 111.15 43.0859 109.855 43.0859Z" fill="#FF1E56"/>
<path d="M109.855 52.4922H89.4355C88.1411 52.4922 87.0918 53.5417 87.0918 54.8359C87.0918 56.1301 88.1411 57.1797 89.4355 57.1797H109.855C111.15 57.1797 112.199 56.1301 112.199 54.8359C112.199 53.5417 111.15 52.4922 109.855 52.4922Z" fill="#FF1E56"/>
<path d="M109.855 61.8984H89.4355C88.1411 61.8984 87.0918 62.948 87.0918 64.2422C87.0918 65.5364 88.1411 66.5859 89.4355 66.5859H109.855C111.15 66.5859 112.199 65.5364 112.199 64.2422C112.199 62.948 111.15 61.8984 109.855 61.8984Z" fill="#FF1E56"/>
<path d="M91.7343 73.1916C91.7038 73.0414 91.6593 72.8938 91.6007 72.7534C91.5421 72.6125 91.4694 72.4766 91.385 72.3479C91.2983 72.2213 91.2022 72.0995 91.0921 71.9916C90.5483 71.4479 89.7397 71.1969 88.978 71.3518C88.828 71.3823 88.6804 71.4268 88.5397 71.4854C88.3991 71.544 88.2632 71.6166 88.1343 71.701C88.0077 71.7854 87.8858 71.8838 87.778 71.9916C87.6702 72.0995 87.5718 72.2211 87.4874 72.3479C87.403 72.4768 87.3304 72.6127 87.2718 72.7534C87.2132 72.894 87.1686 73.0414 87.1382 73.1916C87.1077 73.3437 87.0913 73.4963 87.0913 73.6484C87.0913 73.8031 87.1077 73.9557 87.1382 74.1078C87.1686 74.258 87.2132 74.4057 87.2718 74.5463C87.3304 74.6872 87.403 74.8231 87.4874 74.9518C87.5718 75.0783 87.6702 75.2002 87.778 75.308C87.8858 75.4158 88.0077 75.5143 88.1343 75.5987C88.2632 75.683 88.3991 75.7557 88.5397 75.8143C88.6804 75.8729 88.828 75.9174 88.978 75.9479C89.1304 75.9783 89.2827 75.9948 89.4374 75.9948C90.0538 75.9948 90.6561 75.744 91.0921 75.3078C91.1999 75.2 91.2983 75.0784 91.385 74.9516C91.4694 74.8226 91.5421 74.6867 91.6007 74.5461C91.6593 74.4055 91.7038 74.258 91.7343 74.1078C91.7647 73.9557 91.7788 73.8031 91.7788 73.6484C91.7788 73.4963 91.7647 73.3437 91.7343 73.1916Z" fill="#FF1E56"/>
<path d="M109.856 71.3047H98.3213C97.0268 71.3047 95.9775 72.3542 95.9775 73.6484C95.9775 74.9426 97.0268 75.9922 98.3213 75.9922H109.856C111.15 75.9922 112.2 74.9426 112.2 73.6484C112.2 72.3542 111.15 71.3047 109.856 71.3047Z" fill="#FF1E56"/>
<path d="M38.6415 88.7695H2.6206C1.32615 88.7695 0.276855 89.8191 0.276855 91.1133V115.254C0.276855 116.548 1.32615 117.598 2.6206 117.598H38.6415C39.936 117.598 40.9853 116.548 40.9853 115.254V91.1133C40.9853 89.8191 39.936 88.7695 38.6415 88.7695ZM36.2978 112.911H4.96434V93.457H36.2978V112.911Z" fill="#FF1E56"/>
<path d="M117.656 88.7695H46.811C45.5166 88.7695 44.4673 89.8191 44.4673 91.1133V115.254C44.4673 116.548 45.5166 117.598 46.811 117.598H117.656C118.951 117.598 120 116.548 120 115.254V91.1133C120 89.8191 118.951 88.7695 117.656 88.7695ZM115.313 112.911H49.1548V93.457H115.313V112.911Z" fill="#FF1E56"/>
<path d="M59.831 102.728C59.8006 102.578 59.756 102.43 59.6974 102.29C59.6388 102.147 59.5662 102.011 59.4818 101.884C59.3974 101.755 59.299 101.636 59.1912 101.528C59.0834 101.42 58.9639 101.322 58.8349 101.237C58.7084 101.153 58.5724 101.08 58.4295 101.022C58.2889 100.963 58.1412 100.916 57.9912 100.886C57.6889 100.827 57.3771 100.827 57.0748 100.886C56.9271 100.916 56.7795 100.963 56.6365 101.022C56.4959 101.08 56.36 101.153 56.2334 101.237C56.1045 101.322 55.985 101.42 55.8771 101.528C55.7693 101.636 55.6709 101.755 55.5842 101.884C55.4998 102.011 55.4271 102.147 55.3686 102.29C55.31 102.431 55.2654 102.578 55.235 102.728C55.2045 102.878 55.1904 103.033 55.1904 103.185C55.1904 103.337 55.2045 103.492 55.235 103.642C55.2654 103.792 55.31 103.939 55.3686 104.082C55.4271 104.223 55.4998 104.359 55.5842 104.485C55.6709 104.614 55.7693 104.734 55.8771 104.842C56.3131 105.278 56.9178 105.529 57.5342 105.529C57.6865 105.529 57.8412 105.514 57.9912 105.484C58.1412 105.454 58.2889 105.407 58.4295 105.348C58.5724 105.29 58.7084 105.219 58.8349 105.133C58.9639 105.048 59.0834 104.95 59.1912 104.842C59.299 104.734 59.3974 104.615 59.4818 104.486C59.5662 104.359 59.6388 104.223 59.6974 104.083C59.756 103.94 59.8006 103.792 59.831 103.642C59.8615 103.492 59.8779 103.337 59.8779 103.185C59.8779 103.033 59.8615 102.878 59.831 102.728Z" fill="#FF1E56"/>
<path d="M105.777 100.84H66.4189C65.1245 100.84 64.0752 101.889 64.0752 103.184C64.0752 104.478 65.1245 105.527 66.4189 105.527H105.777C107.072 105.527 108.121 104.478 108.121 103.184C108.121 101.889 107.072 100.84 105.777 100.84Z" fill="#FF1E56"/>
</g>
<defs>
<clipPath id="clip0">
<rect width="120" height="120" fill="white"/>
</clipPath>
</defs>
</svg>
