<svg width="687" height="177" viewBox="0 0 687 177" fill="none" xmlns="http://www.w3.org/2000/svg">
<rect y="28" width="15" height="120" fill="#FF1E56"/>
<rect x="672" y="28" width="15" height="120" fill="#323232"/>
<path d="M68.7347 86.96C60.6547 86.96 53.6147 85.24 47.6147 81.8C41.6147 78.28 37.0147 73.28 33.8147 66.8C30.6147 60.24 29.0147 52.52 29.0147 43.64C29.0147 34.84 30.6147 27.2 33.8147 20.72C37.0147 14.16 41.6147 9.16 47.6147 5.72C53.6147 2.19999 60.6547 0.439993 68.7347 0.439993C74.0147 0.439993 79.0147 1.27999 83.7347 2.96C88.4547 4.55999 92.5747 6.92 96.0947 10.04C97.6147 11.24 98.3747 12.84 98.3747 14.84C98.3747 16.28 97.9747 17.52 97.1747 18.56C96.3747 19.52 95.4147 20 94.2947 20C92.9347 20 91.6147 19.48 90.3347 18.44C86.4947 15.56 82.9747 13.56 79.7747 12.44C76.6547 11.24 73.0947 10.64 69.0947 10.64C60.2947 10.64 53.5347 13.48 48.8147 19.16C44.0947 24.84 41.7347 33 41.7347 43.64C41.7347 54.36 44.0947 62.56 48.8147 68.24C53.5347 73.92 60.2947 76.76 69.0947 76.76C72.9347 76.76 76.4147 76.16 79.5347 74.96C82.7347 73.76 86.3347 71.76 90.3347 68.96C91.9347 67.92 93.2547 67.4 94.2947 67.4C95.4147 67.4 96.3747 67.92 97.1747 68.96C97.9747 69.92 98.3747 71.12 98.3747 72.56C98.3747 74.56 97.6147 76.16 96.0947 77.36C92.5747 80.48 88.4547 82.88 83.7347 84.56C79.0147 86.16 74.0147 86.96 68.7347 86.96ZM179.106 78.32C179.826 79.36 180.186 80.48 180.186 81.68C180.186 83.12 179.586 84.36 178.386 85.4C177.266 86.36 175.946 86.84 174.426 86.84C172.186 86.84 170.386 85.84 169.026 83.84L152.946 58.88C151.106 56 149.146 54 147.066 52.88C144.986 51.68 142.266 51.08 138.906 51.08H125.346V80.36C125.346 82.28 124.786 83.8 123.666 84.92C122.626 86.04 121.146 86.6 119.226 86.6C117.386 86.6 115.906 86.04 114.786 84.92C113.666 83.8 113.106 82.28 113.106 80.36V7.4C113.106 5.56 113.626 4.12 114.666 3.07999C115.786 1.95999 117.306 1.39999 119.226 1.39999H149.106C158.466 1.39999 165.586 3.47999 170.466 7.63999C175.426 11.8 177.906 17.88 177.906 25.88C177.906 32.52 176.026 37.92 172.266 42.08C168.506 46.16 163.146 48.76 156.186 49.88C158.266 50.44 160.146 51.44 161.826 52.88C163.506 54.32 165.146 56.32 166.746 58.88L179.106 78.32ZM147.666 41.12C153.906 41.12 158.506 39.92 161.466 37.52C164.506 35.04 166.026 31.24 166.026 26.12C166.026 21 164.546 17.28 161.586 14.96C158.626 12.56 153.986 11.36 147.666 11.36H125.226V41.12H147.666ZM202.077 86.6C200.237 86.6 198.757 86.04 197.637 84.92C196.517 83.8 195.957 82.28 195.957 80.36V7.03999C195.957 5.19999 196.517 3.71999 197.637 2.59999C198.757 1.39999 200.237 0.799995 202.077 0.799995C203.997 0.799995 205.517 1.36 206.637 2.48C207.757 3.6 208.317 5.11999 208.317 7.03999V80.36C208.317 82.28 207.757 83.8 206.637 84.92C205.597 86.04 204.077 86.6 202.077 86.6ZM255.909 86.96C249.829 86.96 244.029 86.12 238.509 84.44C233.069 82.76 228.709 80.44 225.429 77.48C223.909 76.2 223.149 74.56 223.149 72.56C223.149 71.12 223.549 69.92 224.349 68.96C225.149 67.92 226.109 67.4 227.229 67.4C228.349 67.4 229.709 67.92 231.309 68.96C238.429 74.24 246.549 76.88 255.669 76.88C262.069 76.88 266.989 75.68 270.429 73.28C273.869 70.88 275.589 67.44 275.589 62.96C275.589 59.44 273.989 56.8 270.789 55.04C267.589 53.28 262.469 51.6 255.429 50C248.709 48.56 243.189 46.92 238.869 45.08C234.549 43.24 231.149 40.76 228.669 37.64C226.269 34.44 225.069 30.4 225.069 25.52C225.069 20.64 226.389 16.32 229.029 12.56C231.749 8.72 235.509 5.76 240.309 3.67999C245.109 1.51999 250.589 0.439993 256.749 0.439993C262.429 0.439993 267.669 1.23999 272.469 2.84C277.269 4.44 281.349 6.8 284.709 9.92C286.309 11.28 287.109 12.92 287.109 14.84C287.109 16.2 286.669 17.4 285.789 18.44C284.989 19.48 284.029 20 282.909 20C281.869 20 280.549 19.48 278.949 18.44C275.269 15.64 271.789 13.64 268.509 12.44C265.309 11.16 261.429 10.52 256.869 10.52C250.709 10.52 245.909 11.8 242.469 14.36C239.029 16.84 237.309 20.32 237.309 24.8C237.309 28.64 238.829 31.56 241.869 33.56C244.909 35.48 249.789 37.24 256.509 38.84C263.549 40.44 269.229 42.12 273.549 43.88C277.949 45.56 281.429 47.92 283.989 50.96C286.629 53.92 287.949 57.76 287.949 62.48C287.949 67.28 286.589 71.56 283.869 75.32C281.229 79 277.469 81.88 272.589 83.96C267.789 85.96 262.229 86.96 255.909 86.96ZM327.826 86.6C325.986 86.6 324.466 86.04 323.266 84.92C322.146 83.72 321.586 82.2 321.586 80.36V11.72H297.586C293.746 11.72 291.826 10 291.826 6.55999C291.826 4.88 292.306 3.6 293.266 2.72C294.306 1.84 295.746 1.39999 297.586 1.39999H358.066C359.906 1.39999 361.306 1.84 362.266 2.72C363.306 3.6 363.826 4.88 363.826 6.55999C363.826 10 361.906 11.72 358.066 11.72H334.066V80.36C334.066 82.2 333.506 83.72 332.386 84.92C331.266 86.04 329.746 86.6 327.826 86.6ZM439.722 0.799995C441.562 0.799995 443.042 1.39999 444.162 2.59999C445.282 3.71999 445.842 5.19999 445.842 7.03999V80.36C445.842 82.2 445.282 83.72 444.162 84.92C443.042 86.04 441.562 86.6 439.722 86.6C437.882 86.6 436.402 86.04 435.282 84.92C434.162 83.8 433.602 82.28 433.602 80.36V48.08H386.322V80.36C386.322 82.2 385.762 83.72 384.642 84.92C383.522 86.04 382.042 86.6 380.202 86.6C378.362 86.6 376.882 86.04 375.762 84.92C374.642 83.8 374.082 82.28 374.082 80.36V7.03999C374.082 5.19999 374.642 3.71999 375.762 2.59999C376.882 1.39999 378.362 0.799995 380.202 0.799995C382.042 0.799995 383.522 1.39999 384.642 2.59999C385.762 3.71999 386.322 5.19999 386.322 7.03999V38H433.602V7.03999C433.602 5.19999 434.162 3.71999 435.282 2.59999C436.402 1.39999 437.882 0.799995 439.722 0.799995ZM471.608 86.6C469.768 86.6 468.288 86.04 467.168 84.92C466.048 83.8 465.488 82.28 465.488 80.36V7.03999C465.488 5.19999 466.048 3.71999 467.168 2.59999C468.288 1.39999 469.768 0.799995 471.608 0.799995C473.528 0.799995 475.048 1.36 476.168 2.48C477.288 3.6 477.848 5.11999 477.848 7.03999V80.36C477.848 82.28 477.288 83.8 476.168 84.92C475.128 86.04 473.608 86.6 471.608 86.6ZM572.121 78.8C572.521 79.76 572.721 80.56 572.721 81.2C572.721 82.72 572.081 84 570.801 85.04C569.601 86.08 568.241 86.6 566.721 86.6C565.681 86.6 564.681 86.32 563.721 85.76C562.841 85.12 562.161 84.24 561.681 83.12L553.761 65.12H509.841L501.921 83.12C501.441 84.24 500.721 85.12 499.761 85.76C498.801 86.32 497.801 86.6 496.761 86.6C495.161 86.6 493.721 86.08 492.441 85.04C491.241 84 490.641 82.72 490.641 81.2C490.641 80.56 490.841 79.76 491.241 78.8L525.081 4.75999C525.641 3.48 526.521 2.48 527.721 1.76C529.001 1.04 530.321 0.679997 531.681 0.679997C533.041 0.679997 534.321 1.04 535.521 1.76C536.801 2.48 537.721 3.48 538.281 4.75999L572.121 78.8ZM514.281 55.28H549.441L531.801 15.56L514.281 55.28ZM649.206 0.799995C650.966 0.799995 652.366 1.39999 653.406 2.59999C654.526 3.71999 655.086 5.19999 655.086 7.03999V80.36C655.086 82.2 654.526 83.72 653.406 84.92C652.286 86.04 650.846 86.6 649.086 86.6C647.006 86.6 645.406 85.8 644.286 84.2L597.246 22.16V80.36C597.246 82.2 596.686 83.72 595.566 84.92C594.526 86.04 593.126 86.6 591.366 86.6C589.606 86.6 588.206 86.04 587.166 84.92C586.126 83.8 585.606 82.28 585.606 80.36V7.03999C585.606 5.19999 586.166 3.71999 587.286 2.59999C588.406 1.39999 589.846 0.799995 591.606 0.799995C593.686 0.799995 595.286 1.59999 596.406 3.19999L643.446 65.36V7.03999C643.446 5.19999 643.966 3.71999 645.006 2.59999C646.046 1.39999 647.446 0.799995 649.206 0.799995Z" fill="#323232"/>
<path d="M47.6147 94.2L47.1086 93.3374L47.1173 93.3325L47.6147 94.2ZM33.8147 109.2L32.9159 108.762L32.9181 108.757L33.8147 109.2ZM33.8147 155.28L34.7113 154.837L34.7135 154.842L33.8147 155.28ZM47.6147 170.28L48.1121 169.412L48.1207 169.417L47.6147 170.28ZM83.7347 173.04L83.3994 172.098L83.4065 172.095L83.4136 172.093L83.7347 173.04ZM96.0947 165.96L95.4314 165.212L95.4527 165.193L95.475 165.175L96.0947 165.96ZM97.1747 157.44L97.9429 156.8L97.9554 156.815L97.9673 156.83L97.1747 157.44ZM90.3347 157.56L90.9653 158.336L90.9502 158.348L90.9347 158.36L90.3347 157.56ZM79.7747 163.56L79.4157 162.627L79.4299 162.621L79.4443 162.616L79.7747 163.56ZM48.8147 156.84L48.0456 157.479L48.0456 157.479L48.8147 156.84ZM48.8147 107.76L48.0456 107.121L48.0456 107.121L48.8147 107.76ZM79.5347 101.04L79.1836 101.976L79.1757 101.973L79.5347 101.04ZM90.3347 107.04L89.7897 107.878L89.7753 107.869L89.7612 107.859L90.3347 107.04ZM97.1747 107.04L96.3821 106.43L96.394 106.415L96.4065 106.4L97.1747 107.04ZM96.0947 98.64L95.475 99.4249L95.4527 99.4072L95.4314 99.3883L96.0947 98.64ZM83.7347 91.44L84.0557 90.4929L84.0629 90.4954L84.07 90.4979L83.7347 91.44ZM68.7347 90.04C60.7996 90.04 53.9369 91.728 48.1121 95.0675L47.1173 93.3325C53.2925 89.792 60.5098 88.04 68.7347 88.04V90.04ZM48.1207 95.0625C42.2959 98.4798 37.8284 103.331 34.7113 109.643L32.9181 108.757C36.2009 102.109 40.9335 96.9602 47.1087 93.3375L48.1207 95.0625ZM34.7135 109.638C31.5929 116.035 30.0147 123.6 30.0147 132.36H28.0147C28.0147 123.36 29.6364 115.485 32.9159 108.762L34.7135 109.638ZM30.0147 132.36C30.0147 141.039 31.5925 148.522 34.7113 154.837L32.9181 155.723C29.6369 149.078 28.0147 141.281 28.0147 132.36H30.0147ZM34.7135 154.842C37.8308 161.232 42.2957 166.078 48.1121 169.412L47.1173 171.148C40.9337 167.602 36.1986 162.448 32.9159 155.718L34.7135 154.842ZM48.1207 169.417C53.944 172.834 60.8035 174.56 68.7347 174.56V176.56C60.5059 176.56 53.2854 174.766 47.1087 171.143L48.1207 169.417ZM68.7347 174.56C73.9066 174.56 78.7927 173.738 83.3994 172.098L84.07 173.982C79.2367 175.702 74.1227 176.56 68.7347 176.56V174.56ZM83.4136 172.093C88.0151 170.533 92.0169 168.238 95.4314 165.212L96.758 166.708C93.1324 169.922 88.8943 172.347 84.0557 173.987L83.4136 172.093ZM95.475 165.175C96.7458 164.172 97.3747 162.866 97.3747 161.16H99.3747C99.3747 163.454 98.4836 165.348 96.7143 166.745L95.475 165.175ZM97.3747 161.16C97.3747 159.918 97.0343 158.898 96.3821 158.05L97.9673 156.83C98.915 158.062 99.3747 159.522 99.3747 161.16H97.3747ZM96.4065 158.08C95.7717 157.318 95.0812 157 94.2947 157V155C95.7482 155 96.9777 155.642 97.9429 156.8L96.4065 158.08ZM94.2947 157C93.2103 157 92.1063 157.409 90.9653 158.336L89.7041 156.784C91.1231 155.631 92.6591 155 94.2947 155V157ZM90.9347 158.36C87.0439 161.278 83.4327 163.339 80.105 164.504L79.4443 162.616C82.5167 161.541 85.9455 159.602 89.7347 156.76L90.9347 158.36ZM80.1337 164.493C76.879 165.745 73.1939 166.36 69.0947 166.36V164.36C72.9955 164.36 76.4304 163.775 79.4157 162.627L80.1337 164.493ZM69.0947 166.36C60.0604 166.36 52.9925 163.432 48.0456 157.479L49.5838 156.201C54.0769 161.608 60.529 164.36 69.0947 164.36V166.36ZM48.0456 157.479C43.1227 151.555 40.7347 143.133 40.7347 132.36H42.7347C42.7347 142.867 45.0667 150.765 49.5838 156.201L48.0456 157.479ZM40.7347 132.36C40.7347 121.509 43.1217 113.046 48.0456 107.121L49.5838 108.399C45.0676 113.834 42.7347 121.771 42.7347 132.36H40.7347ZM48.0456 107.121C52.9925 101.168 60.0604 98.24 69.0947 98.24V100.24C60.529 100.24 54.0769 102.992 49.5838 108.399L48.0456 107.121ZM69.0947 98.24C73.0394 98.24 76.6434 98.8566 79.8937 100.107L79.1757 101.973C76.186 100.823 72.83 100.24 69.0947 100.24V98.24ZM79.8858 100.104C83.1902 101.343 86.866 103.391 90.9082 106.221L89.7612 107.859C85.8033 105.089 82.2792 103.137 79.1836 101.976L79.8858 100.104ZM90.8797 106.202C92.4338 107.212 93.5513 107.6 94.2947 107.6V109.6C92.9581 109.6 91.4356 108.948 89.7897 107.878L90.8797 106.202ZM94.2947 107.6C95.0487 107.6 95.7348 107.272 96.3821 106.43L97.9673 107.65C97.0146 108.888 95.7806 109.6 94.2947 109.6V107.6ZM96.4065 106.4C97.0343 105.646 97.3747 104.684 97.3747 103.44H99.3747C99.3747 105.076 98.9151 106.514 97.9429 107.68L96.4065 106.4ZM97.3747 103.44C97.3747 101.734 96.7458 100.428 95.475 99.4249L96.7143 97.8551C98.4836 99.2519 99.3747 101.146 99.3747 103.44H97.3747ZM95.4314 99.3883C92.0134 96.3588 88.0066 94.022 83.3994 92.3821L84.07 90.4979C88.9028 92.218 93.136 94.6812 96.758 97.8917L95.4314 99.3883ZM83.4136 92.3871C78.8031 90.8242 73.912 90.04 68.7347 90.04V88.04C74.1174 88.04 79.2263 88.8558 84.0557 90.4929L83.4136 92.3871ZM179.106 97.68L178.262 97.1435L178.272 97.1269L178.283 97.1108L179.106 97.68ZM178.386 90.6L179.036 89.8407L179.041 89.8443L178.386 90.6ZM169.026 92.16L168.185 91.6184L168.192 91.608L168.199 91.5977L169.026 92.16ZM152.946 117.12L152.103 116.582L152.105 116.578L152.946 117.12ZM147.066 123.12L146.566 122.254L146.579 122.246L146.592 122.24L147.066 123.12ZM125.346 124.92V125.92H124.346V124.92H125.346ZM123.666 91.08L122.959 91.7871L122.945 91.774L122.933 91.7605L123.666 91.08ZM114.786 91.08L114.079 90.3729L114.079 90.3729L114.786 91.08ZM114.666 172.92L113.959 173.627L113.959 173.627L114.666 172.92ZM170.466 168.36L169.817 167.599L169.823 167.594L170.466 168.36ZM172.266 133.92L173.001 133.242L173.008 133.249L172.266 133.92ZM156.186 126.12L156.027 127.107L155.926 125.154L156.186 126.12ZM161.826 123.12L162.476 123.879L162.476 123.879L161.826 123.12ZM166.746 117.12L165.898 116.59L165.902 116.583L166.746 117.12ZM161.466 138.48L162.095 137.703L162.098 137.705L161.466 138.48ZM161.586 161.04L160.956 160.263L160.962 160.258L160.969 160.253L161.586 161.04ZM125.226 164.64V165.64H124.226V164.64H125.226ZM125.226 134.88H124.226V133.88H125.226V134.88ZM178.283 97.1108C178.894 96.2285 179.186 95.3053 179.186 94.32H181.186C181.186 95.7347 180.757 97.0515 179.928 98.2492L178.283 97.1108ZM179.186 94.32C179.186 93.2019 178.737 92.2277 177.731 91.3557L179.041 89.8443C180.434 91.0523 181.186 92.5581 181.186 94.32H179.186ZM177.735 91.3593C176.802 90.5597 175.715 90.16 174.426 90.16V88.16C176.176 88.16 177.729 88.7203 179.036 89.8407L177.735 91.3593ZM174.426 90.16C172.547 90.16 171.044 90.9703 169.853 92.7223L168.199 91.5977C169.727 89.3497 171.825 88.16 174.426 88.16V90.16ZM169.866 92.7016L153.786 117.662L152.105 116.578L168.185 91.6184L169.866 92.7016ZM153.788 117.658C151.895 120.622 149.822 122.772 147.54 124L146.592 122.24C148.469 121.228 150.316 119.378 152.103 116.582L153.788 117.658ZM147.565 123.986C145.285 125.302 142.375 125.92 138.906 125.92V123.92C142.157 123.92 144.687 123.338 146.566 122.254L147.565 123.986ZM138.906 125.92H125.346V123.92H138.906V125.92ZM124.346 124.92V95.64H126.346V124.92H124.346ZM124.346 95.64C124.346 93.9252 123.852 92.681 122.959 91.7871L124.373 90.3729C125.719 91.719 126.346 93.5148 126.346 95.64H124.346ZM122.933 91.7605C122.128 90.8939 120.944 90.4 119.226 90.4V88.4C121.348 88.4 123.123 89.0261 124.398 90.3995L122.933 91.7605ZM119.226 90.4C117.604 90.4 116.395 90.8851 115.493 91.7871L114.079 90.3729C115.416 89.0349 117.167 88.4 119.226 88.4V90.4ZM115.493 91.7871C114.599 92.681 114.106 93.9252 114.106 95.64H112.106C112.106 93.5148 112.732 91.719 114.079 90.3729L115.493 91.7871ZM114.106 95.64V168.6H112.106V95.64H114.106ZM114.106 168.6C114.106 170.245 114.565 171.405 115.373 172.213L113.959 173.627C112.687 172.355 112.106 170.635 112.106 168.6H114.106ZM115.373 172.213C116.267 173.107 117.511 173.6 119.226 173.6V175.6C117.1 175.6 115.305 174.973 113.959 173.627L115.373 172.213ZM119.226 173.6H149.106V175.6H119.226V173.6ZM149.106 173.6C158.335 173.6 165.185 171.547 169.817 167.599L171.114 169.121C165.986 173.493 158.597 175.6 149.106 175.6V173.6ZM169.823 167.594C174.504 163.668 176.906 157.9 176.906 150.12H178.906C178.906 158.34 176.347 164.732 171.108 169.126L169.823 167.594ZM176.906 150.12C176.906 143.679 175.088 138.534 171.524 134.591L173.008 133.249C176.963 137.626 178.906 143.281 178.906 150.12H176.906ZM171.53 134.598C167.959 130.723 162.826 128.201 156.027 127.107L156.345 125.133C163.465 126.279 169.052 128.957 173.001 133.242L171.53 134.598ZM155.926 125.154C157.858 124.634 159.605 123.706 161.175 122.361L162.476 123.879C160.686 125.414 158.674 126.486 156.446 127.086L155.926 125.154ZM161.175 122.361C162.756 121.006 164.333 119.093 165.898 116.59L167.594 117.65C165.958 120.267 164.256 122.354 162.476 123.879L161.175 122.361ZM165.902 116.583L178.262 97.1435L179.95 98.2165L167.59 117.657L165.902 116.583ZM147.666 133.88C154 133.88 158.875 135.092 162.095 137.703L160.836 139.257C158.136 137.068 153.812 135.88 147.666 135.88V133.88ZM162.098 137.705C165.438 140.43 167.026 144.558 167.026 149.88H165.026C165.026 144.962 163.574 141.49 160.833 139.255L162.098 137.705ZM167.026 149.88C167.026 155.189 165.484 159.255 162.203 161.827L160.969 160.253C163.607 158.185 165.026 154.811 165.026 149.88H167.026ZM162.215 161.817C158.993 164.429 154.076 165.64 147.666 165.64V163.64C153.895 163.64 158.258 162.451 160.956 160.263L162.215 161.817ZM147.666 165.64H125.226V163.64H147.666V165.64ZM124.226 164.64V134.88H126.226V164.64H124.226ZM125.226 133.88H147.666V135.88H125.226V133.88ZM197.637 91.08L196.93 90.3729L196.93 90.3729L197.637 91.08ZM197.637 173.4L198.344 172.693L198.356 172.705L198.368 172.718L197.637 173.4ZM206.637 91.08L205.93 91.7871L205.917 91.774L205.904 91.7605L206.637 91.08ZM202.077 90.4C200.456 90.4 199.246 90.8851 198.344 91.7871L196.93 90.3729C198.268 89.0349 200.018 88.4 202.077 88.4V90.4ZM198.344 91.7871C197.45 92.681 196.957 93.9252 196.957 95.64H194.957C194.957 93.5148 195.584 91.719 196.93 90.3729L198.344 91.7871ZM196.957 95.64V168.96H194.957V95.64H196.957ZM196.957 168.96C196.957 170.581 197.442 171.791 198.344 172.693L196.93 174.107C195.592 172.769 194.957 171.019 194.957 168.96H196.957ZM198.368 172.718C199.275 173.689 200.477 174.2 202.077 174.2V176.2C199.997 176.2 198.239 175.511 196.906 174.082L198.368 172.718ZM202.077 174.2C203.792 174.2 205.036 173.707 205.93 172.813L207.344 174.227C205.998 175.573 204.202 176.2 202.077 176.2V174.2ZM205.93 172.813C206.824 171.919 207.317 170.675 207.317 168.96H209.317C209.317 171.085 208.69 172.881 207.344 174.227L205.93 172.813ZM207.317 168.96V95.64H209.317V168.96H207.317ZM207.317 95.64C207.317 93.9252 206.824 92.681 205.93 91.7871L207.344 90.3729C208.69 91.719 209.317 93.5148 209.317 95.64H207.317ZM205.904 91.7605C205.107 90.9021 203.889 90.4 202.077 90.4V88.4C204.265 88.4 206.087 89.0179 207.37 90.3995L205.904 91.7605ZM238.509 91.56L238.214 90.6045L238.218 90.6033L238.509 91.56ZM225.429 98.52L226.099 99.2624L226.087 99.2739L226.074 99.2849L225.429 98.52ZM224.349 107.04L225.118 106.4L225.13 106.415L225.142 106.43L224.349 107.04ZM231.309 107.04L231.905 107.843L231.88 107.862L231.854 107.878L231.309 107.04ZM270.789 120.96L270.307 120.084L270.789 120.96ZM255.429 126L255.651 126.975L255.639 126.978L255.429 126ZM228.669 138.36L227.869 137.76L227.878 137.749L227.887 137.738L228.669 138.36ZM229.029 163.44L228.213 164.018L228.211 164.015L229.029 163.44ZM240.309 172.32L240.707 171.402L240.72 171.408L240.309 172.32ZM272.469 173.16L272.153 172.211L272.153 172.211L272.469 173.16ZM284.709 166.08L284.029 165.347L284.045 165.332L284.062 165.318L284.709 166.08ZM285.789 157.56L285.026 158.206L285.011 158.188L284.997 158.17L285.789 157.56ZM278.949 157.56L278.344 156.764L278.373 156.742L278.404 156.722L278.949 157.56ZM268.509 163.56L268.138 162.632L268.152 162.626L268.166 162.621L268.509 163.56ZM242.469 161.64L243.054 160.829L243.06 160.833L243.066 160.838L242.469 161.64ZM241.869 142.44L241.32 141.605L241.328 141.599L241.335 141.595L241.869 142.44ZM256.509 137.16L256.278 136.187L256.288 136.185L256.509 137.16ZM273.549 132.12L273.172 131.194L273.182 131.19L273.193 131.186L273.549 132.12ZM283.989 125.04L283.224 124.396L283.234 124.385L283.243 124.374L283.989 125.04ZM283.869 100.68L283.059 101.266L283.057 101.263L283.869 100.68ZM272.589 92.04L272.974 91.1169L272.981 91.1201L272.589 92.04ZM255.909 90.04C249.923 90.04 244.221 90.8669 238.801 92.5167L238.218 90.6033C243.838 88.8931 249.736 88.04 255.909 88.04V90.04ZM238.804 92.5155C233.465 94.1645 229.245 96.4237 226.099 99.2624L224.759 97.7776C228.174 94.6963 232.674 92.3155 238.214 90.6045L238.804 92.5155ZM226.074 99.2849C224.781 100.373 224.149 101.733 224.149 103.44H222.149C222.149 101.147 223.038 99.2265 224.785 97.7551L226.074 99.2849ZM224.149 103.44C224.149 104.684 224.49 105.646 225.118 106.4L223.581 107.68C222.609 106.514 222.149 105.076 222.149 103.44H224.149ZM225.142 106.43C225.789 107.272 226.475 107.6 227.229 107.6V109.6C225.743 109.6 224.509 108.888 223.557 107.65L225.142 106.43ZM227.229 107.6C228.063 107.6 229.225 107.202 230.764 106.202L231.854 107.878C230.194 108.958 228.636 109.6 227.229 109.6V107.6ZM230.714 106.237C238.011 100.825 246.342 98.12 255.669 98.12V100.12C246.757 100.12 238.847 102.695 231.905 107.843L230.714 106.237ZM255.669 98.12C262.173 98.12 267.327 99.336 271.002 101.9L269.857 103.54C266.652 101.304 261.966 100.12 255.669 100.12V98.12ZM271.002 101.9C274.73 104.501 276.589 108.259 276.589 113.04H274.589C274.589 108.861 273.008 105.739 269.857 103.54L271.002 101.9ZM276.589 113.04C276.589 114.957 276.152 116.681 275.245 118.178C274.338 119.674 272.997 120.887 271.271 121.836L270.307 120.084C271.782 119.273 272.84 118.286 273.534 117.142C274.227 115.999 274.589 114.643 274.589 113.04H276.589ZM271.271 121.836C267.944 123.666 262.712 125.37 255.651 126.975L255.208 125.025C262.227 123.43 267.235 121.774 270.307 120.084L271.271 121.836ZM255.639 126.978C248.955 128.41 243.502 130.034 239.261 131.84L238.478 130C242.876 128.126 248.463 126.47 255.22 125.022L255.639 126.978ZM239.261 131.84C235.067 133.626 231.812 136.014 229.452 138.982L227.887 137.738C230.487 134.466 234.032 131.894 238.478 130L239.261 131.84ZM229.469 138.96C227.226 141.952 226.069 145.768 226.069 150.48H224.069C224.069 145.432 225.313 141.168 227.869 137.76L229.469 138.96ZM226.069 150.48C226.069 155.168 227.334 159.284 229.848 162.865L228.211 164.015C225.445 160.076 224.069 155.552 224.069 150.48H226.069ZM229.845 162.862C232.448 166.536 236.056 169.387 240.707 171.402L239.912 173.238C234.963 171.093 231.051 168.024 228.213 164.018L229.845 162.862ZM240.72 171.408C245.371 173.501 250.707 174.56 256.749 174.56V176.56C250.472 176.56 244.848 175.459 239.899 173.232L240.72 171.408ZM256.749 174.56C262.335 174.56 267.467 173.773 272.153 172.211L272.786 174.109C267.872 175.747 262.524 176.56 256.749 176.56V174.56ZM272.153 172.211C276.832 170.652 280.784 168.36 284.029 165.347L285.39 166.813C281.915 170.04 277.707 172.468 272.786 174.109L272.153 172.211ZM284.062 165.318C285.462 164.128 286.109 162.757 286.109 161.16H288.109C288.109 163.403 287.157 165.312 285.357 166.842L284.062 165.318ZM286.109 161.16C286.109 160.037 285.754 159.066 285.026 158.206L286.553 156.914C287.585 158.134 288.109 159.563 288.109 161.16H286.109ZM284.997 158.17C284.349 157.328 283.663 157 282.909 157V155C284.395 155 285.629 155.712 286.582 156.95L284.997 158.17ZM282.909 157C282.166 157 281.048 157.388 279.494 158.398L278.404 156.722C280.05 155.652 281.573 155 282.909 155V157ZM279.555 158.356C275.819 161.198 272.252 163.256 268.853 164.499L268.166 162.621C271.327 161.464 274.719 159.522 278.344 156.764L279.555 158.356ZM268.881 164.488C265.531 165.828 261.518 166.48 256.869 166.48V164.48C261.341 164.48 265.088 163.852 268.138 162.632L268.881 164.488ZM256.869 166.48C250.585 166.48 245.546 165.176 241.872 162.442L243.066 160.838C246.273 163.224 250.834 164.48 256.869 164.48V166.48ZM241.885 162.451C238.167 159.771 236.309 155.98 236.309 151.2H238.309C238.309 155.38 239.892 158.549 243.054 160.829L241.885 162.451ZM236.309 151.2C236.309 147.046 237.981 143.801 241.32 141.605L242.419 143.275C239.678 145.079 238.309 147.674 238.309 151.2H236.309ZM241.335 141.595C244.519 139.584 249.53 137.794 256.278 136.187L256.741 138.133C250.048 139.726 245.3 141.456 242.403 143.285L241.335 141.595ZM256.288 136.185C263.3 134.591 268.922 132.925 273.172 131.194L273.927 133.046C269.537 134.835 263.799 136.529 256.731 138.135L256.288 136.185ZM273.193 131.186C277.464 129.555 280.792 127.284 283.224 124.396L284.754 125.684C282.066 128.876 278.435 131.325 273.906 133.054L273.193 131.186ZM283.243 124.374C285.69 121.631 286.949 118.044 286.949 113.52H288.949C288.949 118.436 287.569 122.529 284.736 125.706L283.243 124.374ZM286.949 113.52C286.949 108.923 285.651 104.849 283.059 101.266L284.68 100.094C287.527 104.031 288.949 108.517 288.949 113.52H286.949ZM283.057 101.263C280.541 97.7554 276.938 94.9806 272.197 92.9599L272.981 91.1201C278.001 93.2594 281.918 96.2446 284.682 100.097L283.057 101.263ZM272.205 92.9631C267.55 91.0235 262.125 90.04 255.909 90.04V88.04C262.334 88.04 268.029 89.0565 272.974 91.1169L272.205 92.9631ZM323.266 91.08L322.535 90.3977L322.558 90.3725L322.584 90.3489L323.266 91.08ZM321.586 164.28H322.586V165.28H321.586V164.28ZM293.266 173.28L292.62 174.043L292.605 174.031L292.59 174.017L293.266 173.28ZM362.266 173.28L361.59 172.543L361.605 172.529L361.62 172.517L362.266 173.28ZM334.066 164.28V165.28H333.066V164.28H334.066ZM332.386 91.08L333.093 90.3729L333.105 90.3851L333.117 90.3977L332.386 91.08ZM327.826 90.4C326.206 90.4 324.94 90.8852 323.948 91.8111L322.584 90.3489C323.992 89.0348 325.766 88.4 327.826 88.4V90.4ZM323.997 91.7623C323.071 92.7543 322.586 94.0202 322.586 95.64H320.586C320.586 93.5798 321.221 91.8057 322.535 90.3977L323.997 91.7623ZM322.586 95.64V164.28H320.586V95.64H322.586ZM321.586 165.28H297.586V163.28H321.586V165.28ZM297.586 165.28C295.795 165.28 294.638 165.684 293.933 166.315C293.249 166.927 292.826 167.904 292.826 169.44H290.826C290.826 167.536 291.362 165.933 292.599 164.825C293.814 163.736 295.537 163.28 297.586 163.28V165.28ZM292.826 169.44C292.826 170.926 293.244 171.904 293.942 172.543L292.59 174.017C291.368 172.896 290.826 171.314 290.826 169.44H292.826ZM293.912 172.517C294.717 173.198 295.899 173.6 297.586 173.6V175.6C295.593 175.6 293.895 175.122 292.62 174.043L293.912 172.517ZM297.586 173.6H358.066V175.6H297.586V173.6ZM358.066 173.6C359.759 173.6 360.879 173.195 361.59 172.543L362.942 174.017C361.733 175.125 360.053 175.6 358.066 175.6V173.6ZM361.62 172.517C362.384 171.87 362.826 170.901 362.826 169.44H364.826C364.826 171.339 364.228 172.93 362.912 174.043L361.62 172.517ZM362.826 169.44C362.826 167.904 362.402 166.927 361.719 166.315C361.014 165.684 359.857 165.28 358.066 165.28V163.28C360.115 163.28 361.838 163.736 363.053 164.825C364.289 165.933 364.826 167.536 364.826 169.44H362.826ZM358.066 165.28H334.066V163.28H358.066V165.28ZM333.066 164.28V95.64H335.066V164.28H333.066ZM333.066 95.64C333.066 94.0202 332.581 92.7543 331.655 91.7623L333.117 90.3977C334.431 91.8057 335.066 93.5798 335.066 95.64H333.066ZM331.679 91.7871C330.785 90.8932 329.541 90.4 327.826 90.4V88.4C329.951 88.4 331.747 89.0268 333.093 90.3729L331.679 91.7871ZM444.162 173.4L443.431 172.718L443.443 172.705L443.455 172.693L444.162 173.4ZM444.162 91.08L444.869 90.3729L444.881 90.3851L444.893 90.3977L444.162 91.08ZM435.282 91.08L434.575 90.3729L434.575 90.3729L435.282 91.08ZM433.602 127.92H434.602V128.92H433.602V127.92ZM386.322 127.92V128.92H385.322V127.92H386.322ZM384.642 91.08L385.349 90.3729L385.361 90.3851L385.373 90.3977L384.642 91.08ZM375.762 91.08L375.055 90.3729L375.055 90.3729L375.762 91.08ZM375.762 173.4L376.469 172.693L376.481 172.705L376.493 172.718L375.762 173.4ZM384.642 173.4L383.911 172.718L383.923 172.705L383.935 172.693L384.642 173.4ZM386.322 138H385.322V137H386.322V138ZM433.602 138V137H434.602V138H433.602ZM435.282 173.4L435.989 172.693L436.001 172.705L436.013 172.718L435.282 173.4ZM439.722 174.2C441.322 174.2 442.524 173.689 443.431 172.718L444.893 174.082C443.56 175.511 441.802 176.2 439.722 176.2V174.2ZM443.455 172.693C444.357 171.791 444.842 170.581 444.842 168.96H446.842C446.842 171.019 446.207 172.769 444.869 174.107L443.455 172.693ZM444.842 168.96V95.64H446.842V168.96H444.842ZM444.842 95.64C444.842 94.0202 444.357 92.7543 443.431 91.7623L444.893 90.3977C446.207 91.8057 446.842 93.5798 446.842 95.64H444.842ZM443.455 91.7871C442.553 90.8851 441.343 90.4 439.722 90.4V88.4C441.781 88.4 443.531 89.0349 444.869 90.3729L443.455 91.7871ZM439.722 90.4C438.101 90.4 436.891 90.8851 435.989 91.7871L434.575 90.3729C435.913 89.0349 437.663 88.4 439.722 88.4V90.4ZM435.989 91.7871C435.095 92.681 434.602 93.9252 434.602 95.64H432.602C432.602 93.5148 433.229 91.719 434.575 90.3729L435.989 91.7871ZM434.602 95.64V127.92H432.602V95.64H434.602ZM433.602 128.92H386.322V126.92H433.602V128.92ZM385.322 127.92V95.64H387.322V127.92H385.322ZM385.322 95.64C385.322 94.0202 384.837 92.7543 383.911 91.7623L385.373 90.3977C386.687 91.8057 387.322 93.5798 387.322 95.64H385.322ZM383.935 91.7871C383.033 90.8851 381.823 90.4 380.202 90.4V88.4C382.261 88.4 384.011 89.0349 385.349 90.3729L383.935 91.7871ZM380.202 90.4C378.581 90.4 377.371 90.8851 376.469 91.7871L375.055 90.3729C376.393 89.0349 378.143 88.4 380.202 88.4V90.4ZM376.469 91.7871C375.575 92.681 375.082 93.9252 375.082 95.64H373.082C373.082 93.5148 373.709 91.719 375.055 90.3729L376.469 91.7871ZM375.082 95.64V168.96H373.082V95.64H375.082ZM375.082 168.96C375.082 170.581 375.567 171.791 376.469 172.693L375.055 174.107C373.717 172.769 373.082 171.019 373.082 168.96H375.082ZM376.493 172.718C377.4 173.689 378.602 174.2 380.202 174.2V176.2C378.122 176.2 376.364 175.511 375.031 174.082L376.493 172.718ZM380.202 174.2C381.802 174.2 383.004 173.689 383.911 172.718L385.373 174.082C384.04 175.511 382.282 176.2 380.202 176.2V174.2ZM383.935 172.693C384.837 171.791 385.322 170.581 385.322 168.96H387.322C387.322 171.019 386.687 172.769 385.349 174.107L383.935 172.693ZM385.322 168.96V138H387.322V168.96H385.322ZM386.322 137H433.602V139H386.322V137ZM434.602 138V168.96H432.602V138H434.602ZM434.602 168.96C434.602 170.581 435.087 171.791 435.989 172.693L434.575 174.107C433.237 172.769 432.602 171.019 432.602 168.96H434.602ZM436.013 172.718C436.92 173.689 438.122 174.2 439.722 174.2V176.2C437.642 176.2 435.884 175.511 434.551 174.082L436.013 172.718ZM467.168 91.08L466.461 90.3729L466.461 90.3729L467.168 91.08ZM467.168 173.4L467.876 172.693L467.888 172.705L467.899 172.718L467.168 173.4ZM476.168 91.08L475.461 91.7871L475.448 91.774L475.436 91.7605L476.168 91.08ZM471.608 90.4C469.987 90.4 468.778 90.8851 467.876 91.7871L466.461 90.3729C467.799 89.0349 469.55 88.4 471.608 88.4V90.4ZM467.876 91.7871C466.982 92.681 466.488 93.9252 466.488 95.64H464.488C464.488 93.5148 465.115 91.719 466.461 90.3729L467.876 91.7871ZM466.488 95.64V168.96H464.488V95.64H466.488ZM466.488 168.96C466.488 170.581 466.973 171.791 467.876 172.693L466.461 174.107C465.123 172.769 464.488 171.019 464.488 168.96H466.488ZM467.899 172.718C468.806 173.689 470.009 174.2 471.608 174.2V176.2C469.528 176.2 467.77 175.511 466.437 174.082L467.899 172.718ZM471.608 174.2C473.323 174.2 474.567 173.707 475.461 172.813L476.876 174.227C475.529 175.573 473.734 176.2 471.608 176.2V174.2ZM475.461 172.813C476.355 171.919 476.848 170.675 476.848 168.96H478.848C478.848 171.085 478.222 172.881 476.876 174.227L475.461 172.813ZM476.848 168.96V95.64H478.848V168.96H476.848ZM476.848 95.64C476.848 93.9252 476.355 92.681 475.461 91.7871L476.876 90.3729C478.222 91.719 478.848 93.5148 478.848 95.64H476.848ZM475.436 91.7605C474.639 90.9021 473.421 90.4 471.608 90.4V88.4C473.796 88.4 475.618 89.0179 476.901 90.3995L475.436 91.7605ZM572.121 97.2L573.044 97.5846L573.037 97.6003L573.03 97.6157L572.121 97.2ZM570.801 90.96L570.17 91.7361L570.158 91.7261L570.146 91.7157L570.801 90.96ZM563.721 90.24L563.132 89.4313L563.173 89.4016L563.217 89.3762L563.721 90.24ZM561.681 92.88L562.6 93.2739L562.596 93.2827L561.681 92.88ZM553.761 110.88L554.676 111.283L554.413 111.88H553.761V110.88ZM509.841 110.88V111.88H509.188L508.925 111.283L509.841 110.88ZM501.921 92.88L501.005 93.2828L501.001 93.2739L501.921 92.88ZM499.761 90.24L500.264 89.3762L500.29 89.3913L500.315 89.4079L499.761 90.24ZM492.441 90.96L491.786 90.2043L491.798 90.1939L491.81 90.1839L492.441 90.96ZM491.241 97.2L490.331 97.6157L490.324 97.6003L490.318 97.5846L491.241 97.2ZM525.081 171.24L525.99 170.824L525.994 170.832L525.997 170.839L525.081 171.24ZM527.721 174.24L527.23 175.112L527.218 175.105L527.206 175.097L527.721 174.24ZM535.521 174.24L535.006 173.383L535.018 173.375L535.03 173.368L535.521 174.24ZM538.281 171.24L537.364 170.839L537.368 170.832L537.371 170.824L538.281 171.24ZM514.281 120.72L513.366 121.124L512.747 119.72H514.281V120.72ZM549.441 120.72V119.72H550.979L550.355 121.126L549.441 120.72ZM531.801 160.44L532.715 160.846L531.798 162.911L530.886 160.844L531.801 160.44ZM571.198 96.8154C571.575 95.9105 571.721 95.251 571.721 94.8H573.721C573.721 95.629 573.467 96.5695 573.044 97.5846L571.198 96.8154ZM571.721 94.8C571.721 93.6092 571.239 92.6047 570.17 91.7361L571.431 90.1839C572.922 91.3953 573.721 92.9508 573.721 94.8H571.721ZM570.146 91.7157C569.119 90.8256 567.989 90.4 566.721 90.4V88.4C568.493 88.4 570.083 89.0144 571.456 90.2043L570.146 91.7157ZM566.721 90.4C565.87 90.4 565.042 90.6266 564.224 91.1038L563.217 89.3762C564.319 88.7334 565.491 88.4 566.721 88.4V90.4ZM564.309 91.0487C563.591 91.5705 563.018 92.2991 562.6 93.2739L560.761 92.4861C561.304 91.2209 562.09 90.1895 563.132 89.4313L564.309 91.0487ZM562.596 93.2827L554.676 111.283L552.845 110.477L560.765 92.4773L562.596 93.2827ZM553.761 111.88H509.841V109.88H553.761V111.88ZM508.925 111.283L501.005 93.2827L502.836 92.4773L510.756 110.477L508.925 111.283ZM501.001 93.2739C500.593 92.3217 499.995 91.5983 499.206 91.0721L500.315 89.4079C501.446 90.1617 502.288 91.1983 502.84 92.4861L501.001 93.2739ZM499.257 91.1038C498.439 90.6266 497.611 90.4 496.761 90.4V88.4C497.99 88.4 499.162 88.7334 500.264 89.3762L499.257 91.1038ZM496.761 90.4C495.398 90.4 494.179 90.8361 493.071 91.7361L491.81 90.1839C493.262 89.0039 494.923 88.4 496.761 88.4V90.4ZM493.096 91.7157C492.104 92.5754 491.641 93.5845 491.641 94.8H489.641C489.641 92.9755 490.378 91.4246 491.786 90.2043L493.096 91.7157ZM491.641 94.8C491.641 95.251 491.787 95.9105 492.164 96.8154L490.318 97.5846C489.895 96.5695 489.641 95.629 489.641 94.8H491.641ZM492.15 96.7843L525.99 170.824L524.171 171.656L490.331 97.6157L492.15 96.7843ZM525.997 170.839C526.473 171.929 527.213 172.769 528.235 173.383L527.206 175.097C525.828 174.271 524.808 173.111 524.164 171.641L525.997 170.839ZM528.211 173.368C529.354 174.011 530.506 174.32 531.681 174.32V176.32C530.135 176.32 528.648 175.909 527.23 175.112L528.211 173.368ZM531.681 174.32C532.854 174.32 533.957 174.012 535.006 173.383L536.035 175.097C534.684 175.908 533.227 176.32 531.681 176.32V174.32ZM535.03 173.368C536.131 172.749 536.896 171.91 537.364 170.839L539.197 171.641C538.545 173.13 537.47 174.291 536.011 175.112L535.03 173.368ZM537.371 170.824L571.211 96.7843L573.03 97.6157L539.19 171.656L537.371 170.824ZM514.281 119.72H549.441V121.72H514.281V119.72ZM550.355 121.126L532.715 160.846L530.887 160.034L548.527 120.314L550.355 121.126ZM530.886 160.844L513.366 121.124L515.196 120.316L532.716 160.036L530.886 160.844ZM653.406 173.4L652.65 172.745L652.673 172.718L652.699 172.693L653.406 173.4ZM653.406 91.08L654.113 90.3729L654.125 90.3851L654.137 90.3977L653.406 91.08ZM644.286 91.8L645.105 92.3735L645.094 92.389L645.082 92.4042L644.286 91.8ZM597.246 153.84L598.042 154.444L596.246 156.814V153.84H597.246ZM595.566 91.08L594.835 91.7623L594.833 91.7605L595.566 91.08ZM587.166 91.08L587.898 91.7605L587.898 91.7605L587.166 91.08ZM587.286 173.4L587.993 172.693L588.005 172.705L588.017 172.718L587.286 173.4ZM596.406 172.8L595.586 172.227L595.597 172.211L595.608 172.197L596.406 172.8ZM643.446 110.64L642.648 110.037L644.446 107.661V110.64H643.446ZM645.006 173.4L645.738 172.72L645.75 172.732L645.761 172.745L645.006 173.4ZM649.206 174.2C650.711 174.2 651.822 173.701 652.65 172.745L654.161 174.055C652.909 175.499 651.22 176.2 649.206 176.2V174.2ZM652.699 172.693C653.601 171.791 654.086 170.581 654.086 168.96H656.086C656.086 171.019 655.451 172.769 654.113 174.107L652.699 172.693ZM654.086 168.96V95.64H656.086V168.96H654.086ZM654.086 95.64C654.086 94.0202 653.6 92.7543 652.675 91.7623L654.137 90.3977C655.451 91.8057 656.086 93.5798 656.086 95.64H654.086ZM652.699 91.7871C651.788 90.8763 650.613 90.4 649.086 90.4V88.4C651.079 88.4 652.784 89.0437 654.113 90.3729L652.699 91.7871ZM649.086 90.4C647.307 90.4 646.024 91.0607 645.105 92.3735L643.466 91.2265C644.787 89.3393 646.704 88.4 649.086 88.4V90.4ZM645.082 92.4042L598.042 154.444L596.449 153.236L643.489 91.1958L645.082 92.4042ZM596.246 153.84V95.64H598.246V153.84H596.246ZM596.246 95.64C596.246 94.0202 595.76 92.7543 594.835 91.7623L596.297 90.3977C597.611 91.8057 598.246 93.5798 598.246 95.64H596.246ZM594.833 91.7605C594.011 90.8758 592.894 90.4 591.366 90.4V88.4C593.357 88.4 595.04 89.0442 596.298 90.3995L594.833 91.7605ZM591.366 90.4C589.837 90.4 588.72 90.8758 587.898 91.7605L586.433 90.3995C587.691 89.0442 589.374 88.4 591.366 88.4V90.4ZM587.898 91.7605C587.071 92.6514 586.606 93.905 586.606 95.64H584.606C584.606 93.535 585.18 91.7486 586.433 90.3995L587.898 91.7605ZM586.606 95.64V168.96H584.606V95.64H586.606ZM586.606 168.96C586.606 170.581 587.091 171.791 587.993 172.693L586.579 174.107C585.241 172.769 584.606 171.019 584.606 168.96H586.606ZM588.017 172.718C588.933 173.699 590.1 174.2 591.606 174.2V176.2C589.591 176.2 587.878 175.501 586.555 174.082L588.017 172.718ZM591.606 174.2C593.384 174.2 594.667 173.539 595.586 172.227L597.225 173.373C595.904 175.261 593.987 176.2 591.606 176.2V174.2ZM595.608 172.197L642.648 110.037L644.243 111.243L597.203 173.403L595.608 172.197ZM644.446 110.64V168.96H642.446V110.64H644.446ZM644.446 168.96C644.446 170.602 644.904 171.821 645.738 172.72L644.273 174.08C643.027 172.739 642.446 170.998 642.446 168.96H644.446ZM645.761 172.745C646.589 173.701 647.7 174.2 649.206 174.2V176.2C647.191 176.2 645.502 175.499 644.25 174.055L645.761 172.745Z" fill="#FF1E56"/>
</svg>
