<?xml version="1.0" encoding="utf-8"?>
<!-- Generator: Adobe Illustrator 23.0.3, SVG Export Plug-In . SVG Version: 6.00 Build 0)  -->
<svg version="1.1" id="Capa_1" xmlns="http://www.w3.org/2000/svg" xmlns:xlink="http://www.w3.org/1999/xlink" x="0px" y="0px"
	 viewBox="0 0 884 180" style="enable-background:new 0 0 884 180;" xml:space="preserve">
<style type="text/css">
	.st0{fill:#424EFA;}
</style>
<g>
	<g>
		<g>
			<g>
				<path class="st0" d="M151.57,69.01"/>
				<polygon class="st0" points="121.17,122.32 126.03,140.09 108.42,158.33 90.82,140.09 93.38,131.11 108.5,142.45 116.82,136.09 
					108.5,122.32 87.51,122.32 78.59,122.32 70.54,146.96 108.41,177.95 146.29,146.96 138.19,122.32 				"/>
				<path class="st0" d="M120.36,2.95c0,0-2.72-0.5-6.22-0.79c-3.43-0.29-5.65-0.24-5.73-0.23c-0.09,0-2.31-0.05-5.73,0.23
					c-3.49,0.29-6.22,0.79-6.22,0.79l11.95,8.68L120.36,2.95z"/>
			</g>
			<g>
				<polygon class="st0" points="146.75,85.72 139.37,108.08 164.53,116.73 206.96,71.78 164.49,30.48 150.2,74.6 164.53,82.98 
					164.53,96.15 				"/>
			</g>
		</g>
		<g>
			<polygon class="st0" points="52.32,96.03 52.32,82.86 66.65,74.48 52.37,30.35 9.89,71.66 52.32,116.61 77.48,107.96 70.1,85.59 
							"/>
			<path class="st0" d="M155.87,20.36l-20.2-12.93l-27.25,17.84L81.37,7.44L61.01,20.33l15.46,46.78l19.21,13.28L83.2,89.47
				l4.73,15.09l20.5,3.91l20.49-3.79l4.73-15.09l-12.48-9.08l19.21-13.28L155.87,20.36z M101.57,75.15c-2.26,0-4.09-1.83-4.09-4.09
				c0-2.26,1.83-4.09,4.09-4.09c2.26,0,4.09,1.83,4.09,4.09C105.66,73.32,103.83,75.15,101.57,75.15z M118.08,73.95
				c-1.6,1.6-4.18,1.6-5.78,0c-1.6-1.6-1.6-4.18,0-5.78c1.6-1.6,4.18-1.6,5.78,0C119.67,69.77,119.67,72.35,118.08,73.95z"/>
		</g>
	</g>
	<g>
		<g>
			<path class="st0" d="M299.43,120.34V84.66l-20.18,27.62l-0.92,0l-20.18-27.62v35.68h-9.84v-49.6h11.6l18.88,25.74l18.88-25.75
				h11.6v49.6H299.43z"/>
			<path class="st0" d="M344.94,70.27c13.66,0,24.72,10.56,24.73,24.92c-0.01,14.33-10.9,24.88-24.73,24.89
				c-13.82,0-24.74-10.61-24.74-24.9C320.2,80.79,331.3,70.27,344.94,70.27L344.94,70.27z M330.13,95.17
				c-0.01,9.17,6.54,15.54,14.82,15.54c8.31,0,14.8-6.34,14.81-15.53c0-9.17-6.53-15.56-14.81-15.55
				C336.68,79.62,330.12,85.98,330.13,95.17z"/>
			<path class="st0" d="M461.67,71.3h12.46l-20.89,22.87l22.87,24.87h-12.57l-19.65-21.15v21.15h-9.84V71.3h9.84v19.72L461.67,71.3z
				"/>
			<path class="st0" d="M552.38,120.45l-0.1-22.51l-20.83-26.87h12.24l13.82,18.49l12.76-18.49h10.77l-18.03,27.01l-0.15,22.37
				H552.38z"/>
			<path class="st0" d="M598.82,80.56v10.44h19.36v9.36h-19.36v20.31h-9.84V81.84l6.73-10.63h33.02v9.36H598.82z"/>
			<path class="st0" d="M638.78,120.68V95.34l9.84-9.03v34.36H638.78z"/>
			<path class="st0" d="M638.78,86.61V71.3h9.84v5.91L638.78,86.61z"/>
			<path class="st0" d="M670.18,120.68V89.51l0,0v-7.71H658.7V71.3h15.53l0,0h16.79l0.14,10.78h-11.15v38.6H670.18z"/>
		</g>
		<g>
			<path class="st0" d="M711.06,103.22v17.46h-9.81V81.84V71.18h36.02v32.04H711.06z M711.06,93.88h16.4V80.53h-16.4V93.88z"/>
			<path class="st0" d="M776.49,119.15v-15.79h-19.52v15.79h-9.81V71.18h39.14v47.97H776.49z M756.97,94.01h19.52V80.53h-19.52
				V94.01z"/>
			<path class="st0" d="M806.5,80.53v9.4h23.81v29.23h-33.62v-9.35h23.81V99.27h-23.81V71.18h33.62v9.35H806.5z"/>
			<path class="st0" d="M850.5,80.53v9.4h23.81v29.23h-33.62v-9.35h23.81V99.27h-23.81V71.18h33.62v9.35H850.5z"/>
		</g>
		<g>
			<path class="st0" d="M496.54,80.78v10.03h21.75v9.74h-21.75v10.75h23.38v9.74h-33.6V71.05h33.6v9.74H496.54z"/>
		</g>
		<g>
			<path class="st0" d="M411.21,91.65V71.3h9.94v48.61l-11.43,0l-20.77-33.25l0.72,12.9v20.35h-9.94V71.3h11.44l20.77,33.23
				L411.21,91.65z"/>
		</g>
	</g>
</g>
</svg>
