<svg xmlns="http://www.w3.org/2000/svg" width="140" height="15" fill="none" viewBox="0 0 140 15">
    <path fill="none" d="M0 0h139.005v15H0z"/>
    <path fill="none" d="M28.343 0h110.662v15H28.343z"/>
    <path fill="none" d="M28.343 0h110.662v15H28.343z"/>
    <path fill="#fff" d="M32.683 9.53c-.472 0-1.227-.094-1.698-.094v5a.406.406 0 0 1-.378.378h-1.886a.406.406 0 0 1-.378-.378V1.23c0-.378.189-.472.566-.566C29.947.474 31.268.38 32.683.38c2.924 0 5.472 1.037 5.472 4.434v.188c0 3.397-2.548 4.529-5.472 4.529zm2.83-4.716c0-1.604-.943-2.264-2.83-2.264-.378 0-1.321 0-1.698.094v4.528c.283 0 1.415.095 1.698.095 2.075 0 2.83-.755 2.83-2.265v-.188zM48.343 10.283h-6.226v.094c0 1.132.471 2.453 2.264 2.453 1.415 0 2.736-.094 3.49-.188h.095c.188 0 .377.094.377.283v1.226c0 .283-.094.472-.377.472-1.227.188-1.981.283-3.68.283-1.886 0-4.622-1.038-4.622-4.812V8.68c0-3.019 1.698-4.811 4.622-4.811 2.925 0 4.529 1.981 4.529 4.811v1.038c-.094.377-.283.566-.472.566zm-2.17-1.887c0-1.51-.849-2.358-1.98-2.358-1.133 0-2.076.849-2.076 2.358v.095l4.056-.095zM55.984 6.037c-1.038 0-1.793.283-2.642.66v7.642a.406.406 0 0 1-.377.377h-1.793a.406.406 0 0 1-.377-.377v-10c0-.189.189-.378.377-.378h1.698c.19 0 .378.19.378.378v.377a4.355 4.355 0 0 1 2.736-.943c.188 0 .377.188.377.377v1.51a.406.406 0 0 1-.377.377zM63.626 1.887h-.849c-.943 0-1.132.188-1.132 1.132v.943h1.792c.189 0 .378.189.378.378v1.132a.406.406 0 0 1-.378.377h-1.792v8.49a.406.406 0 0 1-.378.378H59.57a.406.406 0 0 1-.377-.377V5.85L57.4 5.66a.406.406 0 0 1-.378-.377V4.34c0-.189.189-.378.378-.378h1.698V3.02C59.098.566 60.418 0 62.4 0c.471 0 .754.094 1.132.189.188 0 .377.094.377.283v1.132c0 .188-.094.283-.283.283zM69.287 14.906c-3.019 0-4.528-1.982-4.528-4.717V8.585c0-2.736 1.603-4.717 4.528-4.717 3.019 0 4.528 1.981 4.528 4.717v1.51c.095 2.83-1.51 4.81-4.528 4.81zm2.075-6.321c0-1.604-.66-2.547-2.075-2.547-1.32 0-2.076 1.037-2.076 2.547v1.51c0 1.603.66 2.546 2.076 2.546 1.32 0 2.075-1.037 2.075-2.547v-1.51zM81.173 6.037c-1.037 0-1.792.283-2.641.66v7.642a.406.406 0 0 1-.377.377h-1.699a.406.406 0 0 1-.377-.377v-10c0-.189.189-.378.377-.378h1.699c.188 0 .377.19.377.378v.377a4.355 4.355 0 0 1 2.736-.943c.189 0 .377.188.377.377v1.51c0 .188-.188.377-.472.377zM96.55 14.81h-1.792a.406.406 0 0 1-.377-.377V7.83c0-1.509-.283-1.886-1.415-1.886-.378 0-1.132.094-1.793.471.094.378.094.944.094 1.415v6.51a.406.406 0 0 1-.377.377h-1.792a.406.406 0 0 1-.378-.377v-6.51c0-1.509-.283-1.886-1.32-1.886-.378 0-.944.188-1.793.66v7.736a.406.406 0 0 1-.377.377h-1.793a.406.406 0 0 1-.377-.377v-10c0-.189.189-.378.377-.378h1.698c.189 0 .378.19.378.378v.377c.849-.471 1.603-.943 2.736-.943 1.132 0 1.792.283 2.264.849.943-.566 1.792-.85 3.113-.85 2.641 0 3.207 1.793 3.207 4.057v6.51c.095.283-.094.472-.282.472zM107.306 14.621c-.566.095-2.264.283-3.207.283-2.453 0-4.434-.66-4.434-3.962v-10c0-.189.188-.377.377-.377h1.887c.189 0 .377.188.377.377v10.094c0 1.227.378 1.604 1.51 1.604h3.49c.189 0 .378.189.378.377v1.227c0 .283-.095.377-.378.377zM117.494 10.283h-6.226v.094c0 1.132.472 2.453 2.264 2.453 1.415 0 2.736-.094 3.491-.188h.094c.189 0 .377.094.377.283v1.226c0 .283-.094.472-.377.472-1.227.188-1.981.283-3.679.283-1.887 0-4.623-1.038-4.623-4.812V8.68c0-3.019 1.698-4.811 4.623-4.811 2.924 0 4.528 1.981 4.528 4.811v1.038c-.094.377-.189.566-.472.566zm-2.17-1.887c0-1.51-.849-2.358-1.981-2.358-1.132 0-2.075.849-2.075 2.358v.095l4.056-.095zM127.589 14.811h-1.603c-.189 0-.378-.188-.378-.377v-.283a4.914 4.914 0 0 1-2.736.849c-1.603 0-3.302-.566-3.302-3.208v-.094c0-2.17 1.321-3.302 4.623-3.302h1.227v-.849c0-1.226-.567-1.51-1.699-1.51-1.226 0-2.452.095-3.113.19h-.094c-.189 0-.378-.095-.378-.284V4.528c0-.188.095-.377.378-.377.755-.189 1.887-.283 3.207-.283 2.736 0 4.246 1.226 4.246 3.68v6.886c0 .189-.095.377-.378.377zM125.514 10h-1.227c-1.698 0-2.075.566-2.075 1.604v.094c0 .944.377 1.226 1.415 1.226.66 0 1.415-.188 1.981-.566V10h-.094zM138.533 14.434c-1.226.284-2.641.472-3.868.472-3.113 0-4.528-1.792-4.528-4.811V8.68c0-3.02 1.509-4.812 4.528-4.812.472 0 1.132 0 1.793.095V.566c0-.188.188-.377.377-.377h1.793c.188 0 .377.189.377.377V13.87c0 .377 0 .471-.472.566zm-1.981-8.396c-.566-.094-1.415-.094-1.792-.094-1.604 0-2.076 1.132-2.076 2.736v1.51c0 1.603.378 2.735 2.076 2.735.66 0 1.509-.094 1.792-.094V6.038z"/>
    <path fill="none" d="M0 .79h18.478v13.233H0z"/>
    <path fill="none" d="M4.77 6.036h13.59v2.86H4.77z"/>
    <path fill="#2AE798" d="M16.93 8.897H6.2c-.834 0-1.43-.715-1.43-1.43 0-.716.716-1.431 1.43-1.431h10.73c.834 0 1.43.715 1.43 1.43 0 .716-.596 1.43-1.43 1.43z"/>
    <path fill="none" d="M0 5.798h3.337v3.337H0z"/>
    <path fill="#2AE798" d="M1.669 9.135a1.669 1.669 0 1 0 0-3.337 1.669 1.669 0 0 0 0 3.337z"/>
    <path fill="none" d="M0 10.923h13.59v2.86H0z"/>
    <path fill="#2AE798" d="M12.278 13.784H1.55c-.835 0-1.55-.596-1.55-1.43 0-.835.715-1.431 1.43-1.431H12.16c.834 0 1.43.715 1.43 1.43 0 .716-.476 1.43-1.31 1.43z"/>
    <path fill="none" d="M15.141 10.685h3.338v3.337H15.14z"/>
    <path fill="#2AE798" d="M16.81 14.023a1.669 1.669 0 1 0 0-3.338 1.669 1.669 0 0 0 0 3.338z"/>
    <path fill="none" d="M0 1.03h13.59v2.98H0z"/>
    <path fill="#2AE798" d="M12.278 4.01H1.55C.715 4.01 0 3.295 0 2.46c0-.834.715-1.43 1.43-1.43h10.73c.833 0 1.43.715 1.43 1.43 0 .716-.477 1.55-1.312 1.55z"/>
    <path fill="none" d="M15.141.79h3.338v3.338H15.14z"/>
    <path fill="#2AE798" d="M16.81 4.128a1.669 1.669 0 1 0 0-3.337 1.669 1.669 0 0 0 0 3.337z"/>
</svg>
